<svg id="Layer_1" data-name="Layer 1" xmlns="http://www.w3.org/2000/svg" viewBox="0 0 197.37 143.69"><defs><style>.cls-1{opacity:0.17;}.cls-2{fill:#fff;}</style></defs><title>icon-nobg</title><circle class="cls-1" cx="98.58" cy="71.84" r="71.84"/><path class="cls-2" d="M143.26,97.84L83.55,157.52,83,157.18l21-41.3H69.94l-0.27-.57,58.76-59.89,0.46,0.27-20,41.54h34Z" transform="translate(-7.78 -33.9)"/><path class="cls-2" d="M33.49,53.67H27.62q-3.8,0-5.08,2.84t-1.29,9.88V85.78a36.45,36.45,0,0,1-1.1,9.94,20.26,20.26,0,0,1-2.57,5.87,10.41,10.41,0,0,1-2.88,3l-2,1.23a15.53,15.53,0,0,0,2,1.61,12.22,12.22,0,0,1,2.88,3.15,21.3,21.3,0,0,1,2.57,5.93,36.47,36.47,0,0,1,1.1,9.94V145.8q0,7,1.29,9.88t5.08,2.84h5.88v4.08H27.37q-5.14,0-8-3.09T16.6,148V128.51a71.33,71.33,0,0,0-.37-7.29,27.67,27.67,0,0,0-1.35-6.36,12,12,0,0,0-2.69-4.51,6.38,6.38,0,0,0-4.41-1.85v-4.69A6.37,6.37,0,0,0,12.19,102a11.93,11.93,0,0,0,2.69-4.51,27.65,27.65,0,0,0,1.35-6.36,71.31,71.31,0,0,0,.37-7.29V64.17q0-8.4,2.82-11.49t8-3.09h6.12v4.08Z" transform="translate(-7.78 -33.9)"/><path class="cls-2" d="M179.44,158.52h5.88q3.79,0,5.08-2.84t1.29-9.88V126.41a36.49,36.49,0,0,1,1.1-9.94,21.3,21.3,0,0,1,2.57-5.93,12.19,12.19,0,0,1,2.88-3.15,15.78,15.78,0,0,0,2-1.61l-2-1.23a10.38,10.38,0,0,1-2.88-3,20.26,20.26,0,0,1-2.57-5.87,36.47,36.47,0,0,1-1.1-9.94V66.39q0-7-1.29-9.88t-5.08-2.84h-5.88V49.59h6.12q5.14,0,8,3.09t2.82,11.49V83.8a71.31,71.31,0,0,0,.37,7.29A27.58,27.58,0,0,0,198,97.45a11.88,11.88,0,0,0,2.69,4.51,6.36,6.36,0,0,0,4.41,1.85v4.69a6.38,6.38,0,0,0-4.41,1.85,11.9,11.9,0,0,0-2.69,4.51,27.59,27.59,0,0,0-1.35,6.36,71.33,71.33,0,0,0-.37,7.29V148q0,8.4-2.82,11.49t-8,3.09h-6.12v-4.08Z" transform="translate(-7.78 -33.9)"/></svg>