<?xml version="1.0" encoding="utf-8"?>
<!-- Generator: Adobe Illustrator 22.1.0, SVG Export Plug-In . SVG Version: 6.00 Build 0)  -->
<svg version="1.1" id="Layer_1" xmlns="http://www.w3.org/2000/svg" xmlns:xlink="http://www.w3.org/1999/xlink" x="0px" y="0px"
	 viewBox="0 0 661.6 741" style="enable-background:new 0 0 661.6 741;" xml:space="preserve">
<style type="text/css">
	.st0{fill:#FFFFFF;}
	.st1{fill:#4267B2;}
</style>
<g id="Layer_2_1_">
	<g id="Layer_1-2">
		<rect x="166.9" y="144.1" class="st0" width="324.2" height="450.4"/>
		<path class="st1" d="M646.5,370.5v148.4c0,22.5-9.5,39.2-29.1,50.5c-85,49-169.9,98.1-254.9,147.3c-21.8,12.7-42.4,12.4-64.2-0.3
			C214,667.2,129.3,618.3,44.5,569.7c-20-11.5-29.5-28.4-29.5-51.4c0.1-98.6,0.1-197.2,0-295.7c0-23,9.6-39.9,29.5-51.4
			c84.7-48.8,169.4-97.7,253.9-146.7c22.2-13,43-12.6,65.1,0.3c84.1,49,168.5,97.8,253,146.1c20.4,11.7,30.1,28.8,30,52.2
			C646.4,272.3,646.5,321.4,646.5,370.5z M225.1,594.5l266-266H344.4l86.9-181.2l-4.3-3.2C339.8,231.9,253.4,320.5,166.9,409
			l1.5,3.8h149L225.1,594.5z"/>
	</g>
</g>
</svg>
